<?xml version="1.0" encoding="UTF-8"?>
<!DOCTYPE svg PUBLIC "-//W3C//DTD SVG 1.1//EN" "http://www.w3.org/Graphics/SVG/1.1/DTD/svg11.dtd">
<svg xmlns="http://www.w3.org/2000/svg" version="1.1" width="1080px" height="1080px" style="shape-rendering:geometricPrecision; text-rendering:geometricPrecision; image-rendering:optimizeQuality; fill-rule:evenodd; clip-rule:evenodd" xmlns:xlink="http://www.w3.org/1999/xlink">
<g><path style="opacity:1" fill="#fefefe" d="M -0.5,-0.5 C 359.5,-0.5 719.5,-0.5 1079.5,-0.5C 1079.5,359.5 1079.5,719.5 1079.5,1079.5C 719.5,1079.5 359.5,1079.5 -0.5,1079.5C -0.5,719.5 -0.5,359.5 -0.5,-0.5 Z"/></g>
<g><path style="opacity:1" fill="#038002" d="M 859.5,457.5 C 869.652,457.384 878.652,460.551 886.5,467C 920.49,493.983 952.324,523.483 982,555.5C 998.374,574.911 1010.04,596.911 1017,621.5C 1020.42,637.724 1020.26,653.891 1016.5,670C 1012.35,683.291 1004.35,693.624 992.5,701C 974.685,709.953 956.018,716.453 936.5,720.5C 925.004,718.504 917.837,711.838 915,700.5C 913.158,691.351 916.324,684.518 924.5,680C 932.5,675.333 940.5,670.667 948.5,666C 972.564,650.472 979.398,629.305 969,602.5C 960.437,583.903 947.937,568.403 931.5,556C 919.928,547.294 907.762,539.461 895,532.5C 894.164,564.2 892.664,595.866 890.5,627.5C 889.917,646.587 892.417,665.254 898,683.5C 898.667,689.5 898.667,695.5 898,701.5C 893.862,712.652 886.029,716.485 874.5,713C 864.487,706.83 857.987,697.996 855,686.5C 848.447,658.906 845.614,630.906 846.5,602.5C 846.575,582.796 847.408,563.13 849,543.5C 850.764,530.539 855.097,518.539 862,507.5C 862.837,503.705 862.504,500.039 861,496.5C 857.045,490.877 852.712,485.543 848,480.5C 843.737,473.239 844.903,467.073 851.5,462C 854.191,460.395 856.858,458.895 859.5,457.5 Z"/></g>
<g><path style="opacity:1" fill="#038002" d="M 509.5,460.5 C 536.406,456.024 554.572,466.357 564,491.5C 566.842,502.067 565.509,512.067 560,521.5C 551.784,530.787 541.95,532.954 530.5,528C 524.235,523.737 519.402,518.237 516,511.5C 506.78,515.721 500.78,522.721 498,532.5C 495.101,542.11 493.935,551.943 494.5,562C 494.66,587.415 497.16,612.581 502,637.5C 503.673,645.52 506.34,653.187 510,660.5C 512.205,663.04 514.705,665.207 517.5,667C 522.027,667.65 525.194,665.816 527,661.5C 528.616,657.653 529.616,653.653 530,649.5C 531.113,637.135 532.28,624.802 533.5,612.5C 527.963,609.473 523.13,605.473 519,600.5C 512.824,589.366 514.657,579.866 524.5,572C 545.143,561.002 566.476,559.669 588.5,568C 601.105,576.118 603.938,586.952 597,600.5C 593.609,604.557 589.609,607.89 585,610.5C 585.068,628.275 583.734,645.942 581,663.5C 571.503,706.153 545.336,723.653 502.5,716C 486.919,709.753 475.085,699.253 467,684.5C 455.324,659.798 448.324,633.798 446,606.5C 444.58,585.517 444.247,564.517 445,543.5C 447.26,517.01 457.76,494.51 476.5,476C 486.297,468.099 497.297,462.933 509.5,460.5 Z"/></g>
<g><path style="opacity:1" fill="#038002" d="M 133.5,463.5 C 149.698,463.179 160.198,470.846 165,486.5C 166.313,490.42 167.313,494.42 168,498.5C 169.518,513.133 169.851,527.8 169,542.5C 165.439,566.429 164.772,590.429 167,614.5C 170.317,631.696 171.65,649.029 171,666.5C 165.265,690.906 150.432,707.072 126.5,715C 107.947,721.432 90.614,719.099 74.5,708C 53.4586,690.757 41.1253,668.59 37.5,641.5C 40.0378,630.475 46.3711,622.641 56.5,618C 66.9977,615.912 75.4977,619.079 82,627.5C 86.6057,637.255 90.6057,647.255 94,657.5C 97.1273,663.057 101.794,666.391 108,667.5C 114.845,666.99 118.845,663.324 120,656.5C 120.906,652.721 121.406,648.888 121.5,645C 120.041,630.786 118.208,616.62 116,602.5C 115.333,593.833 115.333,585.167 116,576.5C 118.149,553.871 119.149,531.205 119,508.5C 118.066,504.363 116.732,500.363 115,496.5C 112.426,480.292 118.593,469.292 133.5,463.5 Z"/></g>
<g><path style="opacity:1" fill="#048002" d="M 697.5,465.5 C 711.044,463.846 722.211,468.179 731,478.5C 747.592,499.67 760.592,523.003 770,548.5C 785.001,589.504 796.334,631.504 804,674.5C 811.235,686.581 811.235,698.581 804,710.5C 796.952,717.624 788.452,720.124 778.5,718C 770.114,714.737 764.281,708.904 761,700.5C 756.44,688.155 753.107,675.488 751,662.5C 750.296,658.375 748.463,654.875 745.5,652C 729.5,651.667 713.5,651.333 697.5,651C 692.695,650.233 688.361,648.4 684.5,645.5C 683.808,646.025 683.308,646.692 683,647.5C 680.346,662.718 679.013,678.051 679,693.5C 676.029,710.815 665.863,718.649 648.5,717C 638.428,713.257 632.261,706.09 630,695.5C 629.259,658.208 632.259,621.208 639,584.5C 643.436,558.653 648.769,532.986 655,507.5C 660.534,484.464 674.701,470.464 697.5,465.5 Z"/></g>
<g><path style="opacity:1" fill="#038002" d="M 243.5,470.5 C 267.617,470.778 277.784,482.778 274,506.5C 272.722,518.554 271.056,530.554 269,542.5C 267.215,573.097 270.548,603.097 279,632.5C 282.449,643.242 288.282,652.409 296.5,660C 309.792,668.613 323.126,668.613 336.5,660C 346.672,651.184 352.506,640.017 354,626.5C 354.713,616.468 354.379,606.468 353,596.5C 345.999,568.158 340.666,539.491 337,510.5C 333.909,495.188 339.076,483.688 352.5,476C 369.483,472.288 380.65,478.788 386,495.5C 392,529.501 398,563.501 404,597.5C 407.342,627.781 401.009,655.781 385,681.5C 359.051,713.87 326.218,723.37 286.5,710C 261.159,697.659 242.993,678.492 232,652.5C 225.21,636.129 220.876,619.129 219,601.5C 218.192,567.154 218.525,532.821 220,498.5C 222.255,484.417 230.088,475.084 243.5,470.5 Z"/></g>
<g><path style="opacity:1" fill="#fcfdfc" d="M 704.5,526.5 C 716.963,547.448 726.796,569.782 734,593.5C 734.758,595.769 734.591,597.936 733.5,600C 721.5,600.667 709.5,600.667 697.5,600C 695.333,599.167 693.833,597.667 693,595.5C 690.399,580.605 691.399,565.939 696,551.5C 699.413,543.346 702.246,535.012 704.5,526.5 Z"/></g>
</svg>
