<svg version="1.1" id="Layer_1" xmlns="http://www.w3.org/2000/svg" xmlns:xlink="http://www.w3.org/1999/xlink" x="0px" y="0px"
	 width="100%" viewBox="0 0 1024 1024" enable-background="new 0 0 1024 1024" xml:space="preserve">
<path fill="#000000" opacity="1.000000" stroke="none" 
	d="
M194.779877,370.232941 
	C194.649857,365.808594 197.336746,365.755463 200.184387,365.761108 
	C212.683517,365.785767 225.185547,365.913574 237.680420,365.678772 
	C242.024170,365.597168 243.475250,366.957031 243.439163,371.382233 
	C243.257141,393.712585 243.461090,416.046051 243.287506,438.376526 
	C243.252960,442.820984 243.732132,444.654846 249.147720,444.480225 
	C260.947601,444.099823 272.786804,445.031494 284.602325,444.135071 
	C288.419098,443.845520 289.866852,445.294495 289.850586,449.317261 
	C289.774384,468.138367 289.953674,486.956970 289.580383,505.781586 
	C289.466644,511.516907 289.900085,517.408936 291.238373,523.132935 
	C295.011841,539.272522 304.285675,541.742493 316.320862,541.136963 
	C331.558746,540.370239 337.871490,532.740112 338.910553,516.250610 
	C340.264191,494.768524 339.348633,473.274384 339.598328,451.787567 
	C339.683838,444.428528 339.704865,444.227905 347.097687,444.159882 
	C357.914581,444.060364 368.736908,444.294006 379.548889,444.041321 
	C384.234314,443.931793 385.586487,445.723938 385.418701,450.213776 
	C385.116241,458.308533 385.333191,466.422729 385.812836,475.023712 
	C412.238495,436.534515 445.519623,431.737518 484.762482,453.487000 
	C486.169861,452.312714 485.722443,450.338837 485.653412,448.599518 
	C485.522034,445.291016 487.195587,444.133698 490.202301,444.135620 
	C501.855621,444.143066 513.511719,444.278809 525.160889,444.056152 
	C530.140503,443.960999 531.685730,445.726044 531.472290,450.752319 
	C531.051270,460.668060 531.348145,470.614258 531.741333,480.748993 
	C556.694763,437.662994 590.913025,430.502533 633.554749,453.278503 
	C633.306335,453.483887 633.510681,453.401733 633.536865,453.280945 
	C635.525757,444.106720 635.525208,444.182190 645.481567,444.106262 
	C655.471924,444.030060 665.453857,445.243073 675.450745,444.222107 
	C679.042053,443.855347 680.461365,445.503357 680.384460,449.204865 
	C680.194214,458.367004 680.289429,467.535919 680.352417,476.701569 
	C680.363220,478.274048 679.825867,479.976562 681.182861,481.885254 
	C690.438293,462.792786 703.248291,447.905426 724.672729,442.925781 
	C745.365356,438.116211 764.566101,441.518555 781.842468,454.387756 
	C783.482544,451.814362 782.915161,449.436707 782.916870,447.190308 
	C782.937927,419.358826 782.900146,391.527344 782.886597,363.695831 
	C782.883301,357.024261 783.018372,356.888458 789.506958,356.878418 
	C800.839539,356.860901 812.174500,356.992523 823.503479,356.785828 
	C827.799683,356.707489 829.346680,358.166748 829.340271,362.554260 
	C829.238831,431.882996 829.244629,501.211945 829.318237,570.540710 
	C829.322083,574.147583 828.346619,575.554626 824.505676,575.480835 
	C812.843994,575.256653 801.170349,575.190613 789.511963,575.483765 
	C784.810242,575.601990 783.247253,573.929504 783.611328,569.440857 
	C783.791931,567.215332 784.126526,564.856445 783.036072,562.159973 
	C766.853394,577.905273 747.712097,582.383911 726.266052,577.648499 
	C704.593933,572.863159 690.835693,558.470886 680.314087,539.562866 
	C680.314087,549.320496 680.316101,559.078186 680.313354,568.835815 
	C680.311279,576.182800 680.316833,575.865662 673.077576,575.677856 
	C662.261719,575.397217 651.425171,575.380310 640.613403,575.737122 
	C636.263428,575.880615 634.382996,574.815491 634.684387,570.300659 
	C634.833313,568.069702 635.226685,565.697144 633.892151,562.893921 
	C617.733093,577.854248 598.885498,582.339783 577.831665,577.669678 
	C556.846375,573.014832 542.884460,559.552673 533.505920,540.691406 
	C530.879456,542.605591 531.399414,544.742859 531.388489,546.629700 
	C531.327026,557.295288 531.131042,567.966553 531.383179,578.626404 
	C532.150085,611.051514 514.147034,632.060486 486.179779,640.280518 
	C461.151733,647.636658 436.259186,646.770264 411.969513,636.704224 
	C399.248199,631.432434 390.280975,622.143921 383.993164,610.041260 
	C382.618774,607.395752 383.056458,605.833313 385.775757,604.509888 
	C395.961304,599.552734 406.122040,594.540588 416.204742,589.378418 
	C419.133179,587.879150 420.660522,588.897461 422.405884,591.234253 
	C433.232208,605.728943 460.179321,609.579895 475.275787,597.693237 
	C483.225159,591.434021 487.441742,579.782654 485.037079,569.923157 
	C443.237762,587.403687 407.961487,583.166504 384.070770,540.084656 
	C383.016144,540.218201 382.677856,541.050598 382.474640,541.816101 
	C377.335175,561.177063 363.892578,571.982971 345.185974,576.076416 
	C321.944214,581.162476 298.591522,581.552063 275.757050,573.344299 
	C260.487335,567.855652 251.066116,556.962341 246.713715,541.443237 
	C244.208420,532.510193 243.836441,523.400879 243.871201,514.205139 
	C243.950394,493.252930 243.896179,472.300171 243.264938,451.348236 
	C243.264938,474.167023 243.304138,496.985931 243.255447,519.804626 
	C243.187912,551.453674 226.273148,571.944763 195.074203,577.807922 
	C171.643280,582.211304 150.424774,577.295776 131.975677,561.780029 
	C130.307083,560.376709 128.563049,559.161011 129.631210,556.411011 
	C134.272812,544.460938 138.797974,532.465576 143.393448,520.497437 
	C143.559067,520.066162 144.018051,519.747559 144.305481,519.416565 
	C146.180908,519.040894 147.077927,520.414673 148.164368,521.371887 
	C151.176956,524.026245 154.418457,526.364197 157.922653,528.312439 
	C176.454163,538.615417 193.807434,528.910645 194.660782,507.686401 
	C194.921722,501.196533 194.764191,494.689087 194.765396,488.189667 
	C194.772659,449.028503 194.770355,409.867340 194.779877,370.232941 
M774.066284,487.418152 
	C760.996216,477.395660 744.743225,477.931946 733.686340,488.750549 
	C723.745911,498.476715 722.352295,517.008057 730.718018,528.220764 
	C739.358948,539.802368 756.693604,543.158875 769.807007,535.985168 
	C787.021790,526.567749 788.470337,499.600647 774.066284,487.418152 
M430.280792,523.073669 
	C437.900421,540.729614 459.320892,542.635986 471.143585,536.645996 
	C485.348297,529.449219 490.759918,510.757568 483.175446,495.500641 
	C476.534821,482.142242 458.650574,476.449524 444.309143,483.129181 
	C430.228729,489.687256 424.621643,505.030579 430.280792,523.073669 
M619.202576,536.861633 
	C636.533752,528.914368 639.685547,505.368439 629.567017,491.979187 
	C620.287048,479.699646 603.395020,476.694916 590.154419,484.685028 
	C577.749084,492.171112 572.901917,509.486664 579.298462,523.466003 
	C585.796082,537.666321 601.638611,543.215820 619.202576,536.861633 
z"/>
<path fill="#000000" opacity="1.000000" stroke="none" 
	d="
M736.072876,639.663208 
	C736.071594,633.087463 736.071594,626.971375 736.071594,619.771179 
	C731.865540,623.801025 729.950989,628.043396 727.282715,631.715942 
	C724.511536,635.529846 723.408752,635.558655 720.727722,631.640686 
	C718.028870,627.696594 715.480835,623.649475 712.035339,618.374756 
	C711.003601,626.145630 711.559021,632.509399 711.331299,638.832153 
	C711.255188,640.945312 712.547913,644.550903 709.486877,644.672485 
	C705.988586,644.811584 706.969910,641.049011 706.934448,638.774963 
	C706.804871,630.459717 706.851807,622.141541 706.867126,613.824463 
	C706.870789,611.842651 706.642517,609.441650 709.147400,608.888062 
	C711.350464,608.401062 712.120483,610.630127 713.116943,612.083679 
	C716.580078,617.135132 719.983826,622.227173 723.812927,627.900513 
	C728.369629,622.920349 731.192566,617.470337 734.751282,612.574036 
	C735.955444,610.917236 736.764771,608.056030 739.418640,608.916138 
	C742.001038,609.753174 741.186584,612.560364 741.203247,614.619995 
	C741.271606,623.102905 741.266785,631.586914 741.206787,640.069946 
	C741.193420,641.962585 741.722412,644.684326 738.980652,644.865723 
	C735.837158,645.073669 736.280151,642.202026 736.072876,639.663208 
z"/>
<path fill="#000000" opacity="1.000000" stroke="none" 
	d="
M575.185791,611.677612 
	C575.220093,616.554321 575.220093,621.008179 575.220093,626.274048 
	C578.925781,624.589600 580.808533,622.018555 583.042603,619.943604 
	C586.094788,617.108765 589.006409,614.121765 592.078552,611.309570 
	C593.450867,610.053406 594.980103,607.596008 597.025818,609.528748 
	C599.185303,611.568787 596.664856,613.061523 595.383545,614.392090 
	C593.189087,616.671021 590.951782,618.936279 588.521667,620.953369 
	C585.680603,623.311523 585.193359,625.399109 587.848328,628.379944 
	C591.277344,632.229797 594.322754,636.425110 597.466736,640.522827 
	C598.462524,641.820679 599.792603,643.396240 597.908691,644.850708 
	C596.167542,646.195007 594.792419,644.924133 593.693909,643.561279 
	C589.639099,638.530823 585.611511,633.478455 581.476501,628.312988 
	C577.164124,630.629150 574.657654,633.491028 575.216736,638.366211 
	C575.385437,639.837036 575.234680,641.367798 575.050415,642.848755 
	C574.894043,644.105103 574.127136,645.024719 572.751587,645.053711 
	C571.343384,645.083435 570.691162,644.094482 570.399597,642.887695 
	C570.205994,642.086182 570.110168,641.239258 570.118530,640.414124 
	C570.211304,631.261169 570.864624,622.112183 570.188110,612.952698 
	C570.065552,611.293457 570.252869,609.410522 572.202271,608.791626 
	C574.208984,608.154480 574.755737,609.719604 575.185791,611.677612 
z"/>
<path fill="#000000" opacity="1.000000" stroke="none" 
	d="
M806.667480,644.499878 
	C804.545654,635.835205 798.835693,634.285767 791.233704,635.133606 
	C787.948303,635.500000 785.914062,636.420654 785.068665,639.642883 
	C784.818665,640.595886 784.371521,641.516296 783.895630,642.386475 
	C783.122498,643.800110 782.483337,645.799927 780.296570,644.759766 
	C778.451233,643.881958 779.257324,642.209167 779.775330,640.828674 
	C780.474731,638.964722 781.280579,637.140869 782.033997,635.297119 
	C785.110291,627.767944 788.173218,620.233215 791.267151,612.711304 
	C791.950073,611.050781 792.369690,608.903076 794.518799,608.686707 
	C796.950684,608.441956 797.223938,610.802673 797.881958,612.388184 
	C801.699890,621.586853 805.484802,630.800171 809.151794,640.059753 
	C809.972473,642.132202 812.079407,645.262756 806.667480,644.499878 
M795.477539,618.788818 
	C794.782593,617.933777 793.899658,617.944092 793.537476,618.882690 
	C792.133789,622.520630 789.914246,625.906616 789.611572,630.167297 
	C793.086853,630.929077 796.233093,631.366272 799.533630,629.825195 
	C798.852844,625.938293 797.051697,622.735718 795.477539,618.788818 
z"/>
<path fill="#000000" opacity="1.000000" stroke="none" 
	d="
M655.943604,645.313721 
	C646.079895,647.531189 638.078857,641.538452 637.763855,631.881348 
	C637.563232,625.731934 637.679077,619.570801 637.724182,613.415466 
	C637.737122,611.653687 637.406616,609.228149 639.940491,609.152283 
	C642.547668,609.074219 642.260620,611.511108 642.277466,613.273560 
	C642.333069,619.096008 642.240906,624.920044 642.310791,630.742188 
	C642.384094,636.842224 646.565308,641.641663 651.657837,641.628784 
	C656.836182,641.615784 661.404175,636.909729 661.569031,631.049683 
	C661.742126,624.898743 661.607239,618.739258 661.622803,612.583557 
	C661.626587,611.086304 661.484253,609.153137 663.393860,608.975220 
	C665.576721,608.771790 666.032837,610.788757 666.047302,612.462524 
	C666.104736,619.113464 666.361145,625.790649 665.881897,632.410156 
	C665.444946,638.446228 662.382629,643.086426 655.943604,645.313721 
z"/>
</svg>